<?xml version="1.0" standalone="no"?>
<!DOCTYPE svg PUBLIC "-//W3C//DTD SVG 20010904//EN"
 "http://www.w3.org/TR/2001/REC-SVG-20010904/DTD/svg10.dtd">
<svg version="1.0" xmlns="http://www.w3.org/2000/svg"
 width="1280.000000pt" height="1280.000000pt" viewBox="0 0 1280.000000 1280.000000"
 preserveAspectRatio="xMidYMid meet">

<g transform="translate(0.000000,1280.000000) scale(0.100000,-0.100000)"
fill="#000000" stroke="none">
<path d="M5410 7146 c0 -263 0 -266 21 -266 77 0 221 -76 276 -146 146 -186
133 -463 -29 -625 -45 -45 -139 -94 -210 -110 l-58 -12 0 -264 c0 -303 -15
-273 121 -247 348 66 599 287 704 619 39 124 48 203 42 385 -6 176 -18 241
-72 375 -123 304 -401 512 -737 550 l-58 6 0 -265z"/>
<path d="M7245 7399 c-324 -46 -606 -277 -712 -584 -46 -133 -63 -234 -63
-375 0 -295 100 -554 281 -725 140 -133 258 -194 449 -235 52 -11 121 -20 153
-20 l57 0 0 259 0 258 -91 17 c-180 33 -287 120 -345 281 -44 120 -29 299 34
400 75 121 190 191 345 210 l57 6 0 260 0 259 -52 -1 c-29 -1 -80 -5 -113 -10z"/>
<path d="M8180 7305 c-167 -32 -290 -106 -372 -223 -66 -96 -93 -251 -64 -375
52 -219 193 -331 515 -407 202 -48 285 -88 311 -150 18 -45 7 -110 -24 -137
-51 -44 -152 -55 -244 -28 -63 19 -107 72 -118 141 l-6 44 -231 0 -230 0 6
-62 c25 -265 197 -438 493 -493 122 -24 347 -16 454 15 139 40 248 113 309
208 122 190 99 455 -51 598 -94 89 -209 142 -448 204 -168 43 -242 77 -270
123 -41 66 -10 150 65 175 60 20 186 12 222 -14 40 -30 70 -78 78 -124 l7 -40
223 0 224 0 -6 58 c-21 234 -194 423 -439 478 -97 22 -311 27 -404 9z"/>
<path d="M10075 7288 c-205 -18 -394 -98 -541 -231 -66 -59 -150 -182 -186
-270 -55 -136 -63 -179 -62 -357 1 -148 4 -174 28 -253 47 -157 117 -270 234
-378 341 -315 959 -302 1287 26 179 180 263 427 236 693 -21 207 -91 368 -218
503 -188 199 -461 293 -778 267z m226 -452 c144 -44 240 -143 279 -285 18 -69
14 -197 -8 -262 -53 -152 -160 -241 -324 -269 -178 -31 -365 60 -438 213 -94
195 -39 434 124 546 95 66 256 90 367 57z"/>
<path d="M1840 7040 l0 -220 250 0 250 0 0 -605 0 -605 235 0 235 0 2 603 3
602 253 3 252 2 0 220 0 220 -740 0 -740 0 0 -220z"/>
<path d="M4000 7203 c-20 -55 -330 -851 -432 -1113 -27 -69 -73 -188 -103
-265 -29 -77 -61 -157 -69 -177 l-16 -38 253 0 254 0 43 115 43 115 284 -2
285 -3 41 -110 42 -110 254 -3 c238 -2 253 -1 248 15 -3 10 -39 104 -80 208
-40 105 -124 321 -186 480 -62 160 -128 328 -146 375 -71 182 -124 320 -171
442 l-49 128 -237 0 -237 0 -21 -57z m298 -613 c32 -89 60 -167 111 -309 17
-46 31 -86 31 -88 0 -1 -81 -3 -180 -3 -99 0 -180 3 -180 8 0 4 14 45 30 92
17 47 56 156 87 243 31 87 60 154 64 150 4 -4 21 -46 37 -93z"/>
<path d="M3370 4990 l0 -160 2035 0 2035 0 0 160 0 160 -2035 0 -2035 0 0
-160z"/>
</g>
</svg>
